<?xml version="1.0" encoding="UTF-8"?><svg id="Layer_1" xmlns="http://www.w3.org/2000/svg" xmlns:xlink="http://www.w3.org/1999/xlink" viewBox="0 0 1500 81.766917"><defs><style>.cls-1{fill:#fbfcfd;fill-rule:evenodd;}.cls-2{clip-path:url(#clippath);}.cls-3{fill:none;}</style><clipPath id="clippath"><rect class="cls-3" y="-142.917293" width="1500" height="255"/></clipPath></defs><g class="cls-2"><path class="cls-1" d="M1304.125588,60.084966h-235.561035c-31.298462-19.479126-55.189087-33-60.239014-33h-210.357544c-18.591309-13.332336-35.065918-22.599976-44.942383-22.599976s-26.343262,9.267639-44.923096,22.599976h-202.576965c-6.635132,0-30.880493,13.520874-61.96405,33H201.725564c-18.763184,0-209.599976,118-173.799988,118h245.411438c-17.03894,13.382568-26.23938,22-22.11145,22h435.332764c27.32373,21.915039,53.651245,39.899963,66.467285,39.899963s39.158936-17.984924,66.500977-39.899963h443.098999c5.109741,0-3.829712-8.617432-20.992188-22h236.292114c26.199951,0-152.70752-117.036072-173.799927-118Z"/></g></svg>