<svg id="Layer_1" xmlns="http://www.w3.org/2000/svg" viewBox="0 0 50 50"><defs><style>.cls-1{fill:#96793b}</style></defs><path class="cls-1" d="M34.697 33.344c-.437-.155-.675-.546-1.039-.876-1.859 2.531-4.403 1.64-6.824 1.33-.645-.083-1.272-.294-1.93-.452.033.388.438.301.522.556-.518-.023-.979-.194-1.413-.48-1.472-.968-2.834-2.075-4.167-3.22-.375-.323-.61-.818-1.173-.892h.018c-1.31-1.013-2.33-2.33-3.329-3.6-1.864-2.373-3.87-4.658-5.32-7.348.204 1.057.54 2.066 1.026 3 2.455 4.713 5.163 9.267 8.36 13.524 1.77 2.356 3.848 4.43 5.818 6.604-.6-.19-1.004-.653-1.413-1.076-5.898-6.108-10.558-13.048-13.816-20.892-1.176-2.831-2.247-5.713-3.18-8.781-.93 1.228-1.866 2.293-2.601 3.566l-.125-.617c-.29.206-.63.366-.58.726.24 1.705.223 3.431.572 5.134.697 3.401 1.675 6.727 2.502 10.09 1.294 5.264 2.122 10.64 3.414 15.911.045.184.07.373.124.554.1.33.373.448.667.389.3-.06.183-.355.175-.553-.015-.356-.066-.71-.111-1.165.298.354.301.676.336.987.055.502.18 1.008.808.936.706-.082-.11-.682.255-.938.065.117.16.22.18.337.089.543.376.962.937.777.573-.188.179-.689.119-1.048-.185-1.105-.396-2.206-.596-3.309l.197-.042.911 4.33.192-.048-.316-2.376c.787.566.775 1.366.937 2.083.09.396.195.759.675.771.383.01.822.168 1.027-.395.152-.417.395-.618.604 0 .052.151.212.114.33.082.201-.056.227-.22.153-.373-.364-.748-.366-1.68-1.129-2.224l.016.02c.251-1.123-.437-2.022-.632-3.092-.388.269-.332.634-.489.9-.245.42-.569.23-.78.054-.254-.213.285-1.358.64-1.42.207-.037.033.463.311.248.194-.15.026-.39.001-.603-.116-.995-1.107-1.671-.883-2.8-.407.143-.537.552-.95.537-.139-.362.11-.667.152-.995.05-.398.415-.731.26-1.173-.694-1.97-1.392-3.937-2.1-5.936-.39.241-.211.732-.87.951 1.023-1.514.247-2.788-.093-4.103-.626-2.42-1.541-4.745-2.277-7.129-.685-2.22-1.326-4.453-1.634-6.766.102.1.168.21.199.33 2.391 9.177 5.877 18.008 8.592 27.083.56 1.874 1.184 3.736 1.914 5.549.538 1.336.76 1.306 2.003.682 1.365-.684 2.644-1.546 4.134-1.979 1.023-.297 2.264-.347 2.237-1.916.441.241.042.642.395.786.239-.41.199-.92.564-1.209.266.282-.185.618.119.872.537-.005.448-.572.749-.776.07.142-.07.572.322.291.419-.3 1.162-.149 1.262-.892.482.456.546.08.481-.282-.075-.423-.454-.186-.696-.204-.79-.057-1.097.52-1.385 1.108-.053-.273.24-.503.108-.785-.92-.19-1.823.457-2.734.019 3.524-.67 7.025-1.405 10.381-2.736.58-.23.895-.49 1.033-1.075.429.635.892.38 1.639-.816-.767 0-1.546.005-2.325 0-3.513-.027-6.728-1.283-9.966-2.433-.364-.13-.685-.334-.786-.752 1.451.489 2.879 1.073 4.36 1.437 1.304.32 2.586.805 3.971.794.276-.002.452-.532.767-.113.072.095.259.125.296.222.198.51.187.52.707.513.94-.014 1.885.016 2.819-.07 1.782-.163 3.059-1.249 4.244-2.466.455-.468.794-1.069 1.48-1.266-.08.33.162.561.254.838-.283.016-.48-.636-.758-.202-.449.705-1.3 1.195-1.277 2.263l2.76-.96c-.17.612-.758.607-1.202.782-.476.187-.729.416-.327.871.525.597.224.837-.361 1.066a2596.308 2596.308 0 0 0-13.319 5.225c-2.202.873-4.4 1.77-6.444 2.98-1.438.85-3.11 1.029-4.585 1.734-.507.242-.65-.453-1.096-.267-1.274.53-2.527.606-3.948.409a20.053 20.053 0 0 1-2.881-.632c-.534-.156-.901-.519-1.061-1.161-1.32-5.303-2.319-10.678-3.584-15.99-.958-4.023-2.15-7.988-2.742-12.096-.181-1.258-.029-2.509-.85-3.753-.904-1.367-1.022-3.161-1.342-4.807-.158-.81.114-1.503.574-2.125.676-.916 1.332-1.825 1.772-2.897.54-1.318 1.563-1.955 3.034-1.968 5.974-.053 11.945-.032 17.893.614 1.696.184 3.38.492 5.079.621 1.004.076 1.554.594 1.945 1.404.621 1.288 1.371 2.716 1.261 4.032-.238 2.86 1.468 4.906 2.48 7.223a31.21 31.21 0 0 0 4.017 6.746c.206.263.55.456.5.87-2.03-1.88-3.319-4.278-4.6-6.67-1.09-2.036-1.945-4.176-2.634-6.381-.139-.446-.236-.905-.904-.883-2.296.075-4.604-.255-6.89.14-2.712.467-5.443.152-8.163.258-1.785.069-3.55.413-5.347.342-.973-.038-1.95 0-2.924.054-1.218.067-1.26.117-.845 1.267 1.378 3.828 3.264 7.383 5.711 10.642 2.62 3.49 5.771 6.434 9.182 9.123.099.078.191.184.305.221 2.646.875 5.222 2.098 8.142 1.61 1.147-.193 2.024-.826 2.826-1.693l1.06 1.483-.064.076ZM7.11 9.172C5.986 7.459 5.798 5.394 5.084 3.428 1.449 8.197 1.207 9.26 3.056 13.908c.115-.132.248-.228.303-.358.639-1.498 2.083-2.244 3.129-3.36.13-.139.27-.259.49-.222 2.83.469 5.617-.32 8.463-.266 5.431.102 10.894-.101 16.321-.676.682-.072.724-.333.552-.832-.338-.983-.724-1.95-1.032-2.942-.289-.926-.907-1.245-1.83-1.318-2.301-.181-4.603-.32-6.908-.175-3.333.208-6.6-.448-9.898-.663-1.964-.128-3.933-.514-5.936-.155-.832.15-.894.372-.66 1.083.547 1.669 1.004 3.365 1.06 5.148Zm32.766 29.225c1.083-.073 1.767-.878 2.697-1.076.27-.058.64-.089.624-.428-.013-.287-.163-.676-.48-.743a.697.697 0 0 0-.777.407c-.086.188-.166.379-.307.705l-.1-.652c-.467.14-.253.806-.712.881-.75.123-.753.101-.945.906Zm-5.095 1.619.08.259c1.301-.441 2.603-.882 3.903-1.325.45-.153.617-.546.41-.892-.205-.34-.613-.103-.814.102-.548.562-1.139 1.01-1.942 1.095-.645.069-.974.734-1.637.76Zm7.08-4.637c-.478.467-1.196.622-1.504 1.276.42-.546 1.55-.163 1.504-1.276Zm-7.883 4.942c-.617-.158-.897.434-1.387.407-.04-.002-.123.206-.13.319-.008.15.13.235.247.167.425-.247 1.065-.188 1.27-.893ZM44.568 32.663c.767-.974 2.619-1.46 3.947-.954-.373-.936-.91-1.608-1.615-2.193-1.411-1.173-3.114-1.932-4.462-3.189-.275-.257-.541-.524-.812-.786.21-.053.365.053.508.182 1.312 1.192 2.855 2.05 4.33 3.008.945.613 1.681 1.413 2.169 2.43.262.545.128.88-.536.773-1.274-.203-2.428.125-3.53.73Z"/><path class="cls-1" d="M29.979 29.725c-.285-.145-.603-.237-.284-.679.444-.613.161-1.015-.366-1.497-1.793-1.639-2.724-3.845-3.664-6.014-.329-.758-.5-1.324-1.444-.698-.43.285-.97.21-1.53.13.194-1.126.781-2.128.881-3.253.031-.346.147-.707.08-1.032-.105-.518.003-.663.509-.978 1.473-.918 2.184-.389 3.05 1.153.957 1.703 1.674 3.538 2.588 5.267.902 1.707 1.925 3.331 3.726 4.295.486.26.925.47 1.485.487.414.012.848.24.978.645.11.347-.328.58-.557.654-1.666.533-3.104 1.677-4.915 1.824-.314.026-.486-.013-.555-.322.635.238.781-.3.892-.666.16-.532.205-1.107.235-1.667.011-.226.399-.627-.053-.676-.435-.046-.317.442-.31.727.01.343.134.902-.086.974-.742.245-.564.83-.66 1.326Zm-1.157-4.161V22.22c-.202.94-.271 1.886-.33 2.831-.015.244.113.414.346.499.053.636.426 1.06.982 1.41-.294-1.042.73-2.146-.233-3.134l.016.013-.394-.795c-.364.865-.002 1.755-.387 2.52Zm-1.395-6.783c-.442-.974-.888-1.947-1.323-2.924-.23-.519-.593-.351-.942-.189-.253.119-.444.527-.228.569.82.157.284.65.246.921-.094.666-.311 1.315-.479 1.97.64-.765.48-1.81.997-2.656.276.463-.353 1.277.626 1.36.018.002.046.236.022.352-.132.645-.278 1.286-.421 1.936-.21-.092-.034-.373-.29-.32-.04.009-.084.178-.066.261.222 1.068.832 1.925 1.539 2.969.194-1.352.546-2.466.269-3.635.134-.195.116-.403.05-.614Zm2.857 5.404c.254.845.674 1.57 1.103 2.304.448.764-.379 1.595-.173 2.59.353-.443.243-.919.613-1.204l.1.71c.173-.343.122-.796.544-1.005.12.364-.228.634-.021.982.553-.763 1.661-.227 2.199-1.05-.79-.314-1.53-.743-2.264-1.235l.782.895c-1.455-.557-1.926-1.994-2.883-2.987ZM34.76 33.268c.98.626 2.018 1.138 3.081 1.608.593.261 1.18.419 1.856.285-.187-.27-.6-.136-.773-.503l1.957.225c-1.134 1.248-4.458.412-6.184-1.54l.064-.075ZM39.615 27.088l3.251.226c-1.019.122-2.036.222-3.251-.226ZM39.768 34.463c.684-.196 1.05-.629 1.77-.502-.544.316-.831.9-1.77.502Z"/><path d="m18.673 29.31.01.074.008-.074h-.018z"/><path class="cls-1" d="M27.377 19.395c-.35.75-.143 1.622-.564 2.484-.274-1.207-.166-2.215.614-3.098.066.211.084.419-.05.614ZM8.718 30.013l1.736 8.449-.227.047-1.718-8.452.209-.044ZM16.494 44.326c.054.505.077 1.282-.42 1.255-.547-.03-.773-.76-.623-1.399.076-.323.017-.7.48-1.006-.41.784.263.86.579 1.17l-.016-.02ZM11.598 41.944l-1.162-5.784.156-.031 1.182 5.78-.176.035ZM6.987 22.528c-.679-1.512-.9-3.165-.949-4.853l.95 4.853ZM7.971 20.42c-.71-1.293-1.012-2.735-1.126-4.23l1.126 4.23ZM9.308 40.415l.92 3.952c-.63-1.237-.85-2.576-.92-3.952ZM11.018 35.862l-.623-2.9.19-.041.63 2.873-.197.068ZM17.588 8.031l.38-.665c-.168.068-.265.081-.326.136-.403.36-.834.567-1.374.302-.615-.301-1.04-1.289-.671-1.77.442-.58 1.159-.613 1.7-.264.477.308.857.263 1.311.129 1.33-.393 2.674-.329 4.015-.081.327.06.586.015.896-.11a1.2 1.2 0 0 1 1.602.734c.258.774-.377.98-.844 1.098-.52.13-1.19.756-1.635-.199-.096-.206-.338-.006-.51.038-.981.251-1.902.844-3 .361-.481-.212-.904.396-1.544.291Zm5.09-1.362c-1.168-.986-3.508-.892-4.145.175 1.377-.21 2.712-.09 4.145-.175ZM2.751 10.335c-.41-.686-.137-1.219.136-1.77q.377.528-.136 1.77ZM29.587 23.826l-.092 1.927c-.126-.651-.498-1.324.108-1.914l-.016-.013Z"/></svg>