<svg xmlns="http://www.w3.org/2000/svg" viewBox="0 0 512 512"><path d="M497.5 256.006c0 133.387-108.115 241.498-241.496 241.494C122.614 497.504 14.5 389.393 14.5 256.006 14.493 122.618 122.615 14.5 256.004 14.5 389.385 14.5 497.5 122.622 497.5 256.006Z" style="fill:#bcdc9f"/><path d="m371.045 206.302-19.244-19.269c-1.83-1.824-5.042-1.824-6.872 0L256 253l-88.93-65.967c-1.829-1.824-5.041-1.824-6.87 0l-19.245 19.269a4.853 4.853 0 0 0 0 6.857L252.564 324.91a4.86 4.86 0 0 0 6.872 0l111.609-111.752a4.853 4.853 0 0 0 0-6.857Z" style="fill:#254571"/></svg>