<svg id="visual" viewBox="0 0 1850 500" width="1850" height="500" xmlns="http://www.w3.org/2000/svg" xmlns:xlink="http://www.w3.org/1999/xlink" version="1.1"><rect x="0" y="0" width="1850" height="500" fill="#fff"></rect><path d="M0 371L25.7 353.2C51.3 335.3 102.7 299.7 154 290C205.3 280.3 256.7 296.7 308.2 322.8C359.7 349 411.3 385 462.8 384.5C514.3 384 565.7 347 617 340.5C668.3 334 719.7 358 771 374.3C822.3 390.7 873.7 399.3 925 398C976.3 396.7 1027.7 385.3 1079 365.8C1130.3 346.3 1181.7 318.7 1233.2 324.5C1284.7 330.3 1336.3 369.7 1387.8 388.5C1439.3 407.3 1490.7 405.7 1542 385C1593.3 364.3 1644.7 324.7 1696 313.7C1747.3 302.7 1798.7 320.3 1824.3 329.2L1850 338L1850 501L1824.3 501C1798.7 501 1747.3 501 1696 501C1644.7 501 1593.3 501 1542 501C1490.7 501 1439.3 501 1387.8 501C1336.3 501 1284.7 501 1233.2 501C1181.7 501 1130.3 501 1079 501C1027.7 501 976.3 501 925 501C873.7 501 822.3 501 771 501C719.7 501 668.3 501 617 501C565.7 501 514.3 501 462.8 501C411.3 501 359.7 501 308.2 501C256.7 501 205.3 501 154 501C102.7 501 51.3 501 25.7 501L0 501Z" fill="#254571" stroke-linecap="round" stroke-linejoin="miter"></path></svg>