<svg id="visual" viewBox="0 0 2050 750" width="2050" height="750" xmlns="http://www.w3.org/2000/svg" xmlns:xlink="http://www.w3.org/1999/xlink" version="1.1"><rect x="0" y="0" width="2050" height="750" fill="#7EACCC"></rect><path d="M0 235L31 219C62 203 124 171 186.2 165.7C248.3 160.3 310.7 181.7 372.8 216.3C435 251 497 299 559 302.5C621 306 683 265 745.2 263.7C807.3 262.3 869.7 300.7 931.8 309C994 317.3 1056 295.7 1118.2 266.3C1180.3 237 1242.7 200 1304.8 208.7C1367 217.3 1429 271.7 1491 286.3C1553 301 1615 276 1677.2 272.3C1739.3 268.7 1801.7 286.3 1863.8 267.3C1926 248.3 1988 192.7 2019 164.8L2050 137L2050 751L2019 751C1988 751 1926 751 1863.8 751C1801.7 751 1739.3 751 1677.2 751C1615 751 1553 751 1491 751C1429 751 1367 751 1304.8 751C1242.7 751 1180.3 751 1118.2 751C1056 751 994 751 931.8 751C869.7 751 807.3 751 745.2 751C683 751 621 751 559 751C497 751 435 751 372.8 751C310.7 751 248.3 751 186.2 751C124 751 62 751 31 751L0 751Z" fill="#1b3353"></path><path d="M0 248L31 246.7C62 245.3 124 242.7 186.2 257.8C248.3 273 310.7 306 372.8 324C435 342 497 345 559 333.3C621 321.7 683 295.3 745.2 288.2C807.3 281 869.7 293 931.8 308.7C994 324.3 1056 343.7 1118.2 346.5C1180.3 349.3 1242.7 335.7 1304.8 328.2C1367 320.7 1429 319.3 1491 309.3C1553 299.3 1615 280.7 1677.2 289C1739.3 297.3 1801.7 332.7 1863.8 329.5C1926 326.3 1988 284.7 2019 263.8L2050 243L2050 751L2019 751C1988 751 1926 751 1863.8 751C1801.7 751 1739.3 751 1677.2 751C1615 751 1553 751 1491 751C1429 751 1367 751 1304.8 751C1242.7 751 1180.3 751 1118.2 751C1056 751 994 751 931.8 751C869.7 751 807.3 751 745.2 751C683 751 621 751 559 751C497 751 435 751 372.8 751C310.7 751 248.3 751 186.2 751C124 751 62 751 31 751L0 751Z" fill="#1e395d"></path><path d="M0 386L31 389.2C62 392.3 124 398.7 186.2 395.5C248.3 392.3 310.7 379.7 372.8 375.2C435 370.7 497 374.3 559 389.2C621 404 683 430 745.2 426.3C807.3 422.7 869.7 389.3 931.8 364.8C994 340.3 1056 324.7 1118.2 336C1180.3 347.3 1242.7 385.7 1304.8 384.7C1367 383.7 1429 343.3 1491 336C1553 328.7 1615 354.3 1677.2 354.3C1739.3 354.3 1801.7 328.7 1863.8 325.2C1926 321.7 1988 340.3 2019 349.7L2050 359L2050 751L2019 751C1988 751 1926 751 1863.8 751C1801.7 751 1739.3 751 1677.2 751C1615 751 1553 751 1491 751C1429 751 1367 751 1304.8 751C1242.7 751 1180.3 751 1118.2 751C1056 751 994 751 931.8 751C869.7 751 807.3 751 745.2 751C683 751 621 751 559 751C497 751 435 751 372.8 751C310.7 751 248.3 751 186.2 751C124 751 62 751 31 751L0 751Z" fill="#223f67"></path><path d="M0 416L31 413.3C62 410.7 124 405.3 186.2 412.7C248.3 420 310.7 440 372.8 456.5C435 473 497 486 559 482.3C621 478.7 683 458.3 745.2 457C807.3 455.7 869.7 473.3 931.8 463.7C994 454 1056 417 1118.2 402.2C1180.3 387.3 1242.7 394.7 1304.8 396.2C1367 397.7 1429 393.3 1491 400.3C1553 407.3 1615 425.7 1677.2 433.2C1739.3 440.7 1801.7 437.3 1863.8 450.3C1926 463.3 1988 492.7 2019 507.3L2050 522L2050 751L2019 751C1988 751 1926 751 1863.8 751C1801.7 751 1739.3 751 1677.2 751C1615 751 1553 751 1491 751C1429 751 1367 751 1304.8 751C1242.7 751 1180.3 751 1118.2 751C1056 751 994 751 931.8 751C869.7 751 807.3 751 745.2 751C683 751 621 751 559 751C497 751 435 751 372.8 751C310.7 751 248.3 751 186.2 751C124 751 62 751 31 751L0 751Z" fill="#254571"></path><path d="M0 548L31 546.7C62 545.3 124 542.7 186.2 546C248.3 549.3 310.7 558.7 372.8 554C435 549.3 497 530.7 559 512.7C621 494.7 683 477.3 745.2 466.7C807.3 456 869.7 452 931.8 452.2C994 452.3 1056 456.7 1118.2 464.2C1180.3 471.7 1242.7 482.3 1304.8 481.5C1367 480.7 1429 468.3 1491 463.7C1553 459 1615 462 1677.2 475.5C1739.3 489 1801.7 513 1863.8 520.5C1926 528 1988 519 2019 514.5L2050 510L2050 751L2019 751C1988 751 1926 751 1863.8 751C1801.7 751 1739.3 751 1677.2 751C1615 751 1553 751 1491 751C1429 751 1367 751 1304.8 751C1242.7 751 1180.3 751 1118.2 751C1056 751 994 751 931.8 751C869.7 751 807.3 751 745.2 751C683 751 621 751 559 751C497 751 435 751 372.8 751C310.7 751 248.3 751 186.2 751C124 751 62 751 31 751L0 751Z" fill="#33517d"></path><path d="M0 541L31 544C62 547 124 553 186.2 556.7C248.3 560.3 310.7 561.7 372.8 562.3C435 563 497 563 559 564C621 565 683 567 745.2 563C807.3 559 869.7 549 931.8 559C994 569 1056 599 1118.2 610.5C1180.3 622 1242.7 615 1304.8 610C1367 605 1429 602 1491 601.2C1553 600.3 1615 601.7 1677.2 603.8C1739.3 606 1801.7 609 1863.8 611.7C1926 614.3 1988 616.7 2019 617.8L2050 619L2050 751L2019 751C1988 751 1926 751 1863.8 751C1801.7 751 1739.3 751 1677.2 751C1615 751 1553 751 1491 751C1429 751 1367 751 1304.8 751C1242.7 751 1180.3 751 1118.2 751C1056 751 994 751 931.8 751C869.7 751 807.3 751 745.2 751C683 751 621 751 559 751C497 751 435 751 372.8 751C310.7 751 248.3 751 186.2 751C124 751 62 751 31 751L0 751Z" fill="#405d88"></path><path d="M0 694L31 695C62 696 124 698 186.2 688.2C248.3 678.3 310.7 656.7 372.8 646.5C435 636.3 497 637.7 559 648C621 658.3 683 677.7 745.2 682.7C807.3 687.7 869.7 678.3 931.8 665.2C994 652 1056 635 1118.2 640.3C1180.3 645.7 1242.7 673.3 1304.8 687.3C1367 701.3 1429 701.7 1491 701.3C1553 701 1615 700 1677.2 697.2C1739.3 694.3 1801.7 689.7 1863.8 686C1926 682.3 1988 679.7 2019 678.3L2050 677L2050 751L2019 751C1988 751 1926 751 1863.8 751C1801.7 751 1739.3 751 1677.2 751C1615 751 1553 751 1491 751C1429 751 1367 751 1304.8 751C1242.7 751 1180.3 751 1118.2 751C1056 751 994 751 931.8 751C869.7 751 807.3 751 745.2 751C683 751 621 751 559 751C497 751 435 751 372.8 751C310.7 751 248.3 751 186.2 751C124 751 62 751 31 751L0 751Z" fill="#4d6994"></path></svg>