<svg id="Layer_1" xmlns="http://www.w3.org/2000/svg" viewBox="0 0 150 150"><defs><style>.cls-1{fill:#96793b}</style></defs><path class="cls-1" d="M119.266 46.34c-.07-.95-.25-1.926-.231-2.85.057-2.654-.592-5.18-1.176-7.708-.744-3.223-1.456-6.464-2.547-9.597-.793-2.279-1.646-4.528-3.05-6.528a60.576 60.576 0 0 0-5.303-6.523c-1.749-1.874-3.471-3.743-5.743-4.962-2.327-1.248-4.397-2.928-6.988-3.755-2.483-.793-4.918-1.688-7.494-2.187-1.935-.374-3.905-.289-5.832-.686-1.278-.265-2.59-.584-3.876-.54-2.815.097-5.668.128-8.4.895-2.012.564-4.14.448-6.102 1.369-2.008.943-4.203 1.484-6.237 2.378-2.854 1.255-5.258 3.27-7.785 5.046a37.841 37.841 0 0 0-6.9 6.286c-2.407 2.795-4.584 5.754-6.294 9.039-1.254 2.409-2.028 5.004-2.778 7.584-.907 3.112-1.516 6.3-1.968 9.529-.376 2.69-.384 5.363-.135 8.023.286 3.058.932 6.062 2.065 8.953 1.069 2.727 1.979 5.523 3.306 8.138.923 1.82 1.815 3.663 2.787 5.453 1.682 3.099 3.55 6.098 5.388 9.11.62 1.019 1.202 2.03 1.704 3.122.487 1.058.753 2.209 1.404 3.218 1.04 1.613 1.408 3.571 1.502 5.384.101 1.944-.035 3.984-1.185 5.692-.047.093-.1.18-.156.264a10.536 10.536 0 0 1-.698 1.533c-.048.146-.1.29-.158.434-.163.601-.389 1.185-.636 1.78-.086.208-.173.416-.254.624a2.592 2.592 0 0 1-.096.425c.102.805.215 1.589.457 2.347.323.49.678.955 1.179 1.302.356.247.765.306 1.104-.043.336-.345.004-.662-.112-.97-.068-.183-.21-.351-.355-.488-.79-.75-.799-1.623-.645-2.648.203-1.353 1.062-2.376 1.539-3.586.864-2.19 1.918-4.257 1.895-6.751-.02-2.017-.374-3.944-1.163-5.693-1.429-3.17-3.15-6.21-4.778-9.288-1.721-3.256-3.597-6.426-5.247-9.723-1.713-3.424-3.64-6.747-4.956-10.356-.898-2.46-1.668-4.95-1.86-7.608-.176-2.424-.148-4.847-.22-7.27-.027-.96-.082-1.926.08-2.879.316-1.84.676-3.673.984-5.514.632-3.782 2.514-7.114 3.802-10.66.102-.281.286-.536.455-.787 2.232-3.316 4.576-6.536 7.515-9.285 1.886-1.765 3.816-3.495 5.97-4.899 2.625-1.71 5.424-3.108 8.426-4.114 2.543-.852 5.064-1.73 7.743-2.04 6.749-.786 13.444-.19 20.06 1.101 4.835.944 9.316 2.881 13.54 5.501 2.617 1.623 4.88 3.575 7.026 5.724 3.145 3.148 5.306 6.854 6.39 11.182.918 3.669 1.911 7.32 2.762 11.003.58 2.517.877 5.073.733 7.687-.293 5.337-1.174 10.55-2.849 15.63a69.274 69.274 0 0 1-6.301 13.779c-1.296 2.177-2.568 4.402-4.412 6.157-2.81 2.677-5.555 5.423-8.442 8.023-1.798 1.619-3.403 3.457-4.96 5.322-.507.608-.805 1.283-.77 2.084.093 2.138.232 4.259 2.026 5.803.076.065.124.161.193.234 1.104 1.16 1.317 2.48.613 3.904-.31.625-.418 1.29-.5 1.94-2.445-.307-4.79-.671-7.148-.88-2.052-.181-4.123-.125-6.177-.29-1.915-.152-3.812-.239-5.719.073-1.045.17-2.118.174-3.17.22-2.434.107-4.878-.153-7.314.186-2.574.359-5.156.67-7.737.985-.994.121-1.992.223-2.992.288-2.441.158-4.846.882-7.326.458a24.83 24.83 0 0 0-1.953-.23c-.426-.04-.853.012-.89.565-.037.535.41.474.744.522.799.117 1.665.07 2.386.37 1.749.73 3.384 1.715 5.216 2.412-.584.94-1.457 1.211-2.25 1.615-.752.385-1.21 1.546-.72 2.023.706.687 1.498 1.379 2.469 1.645 1.398.383 2.823.668 4.273.842 2.054.245 4.078.757 6.16.755 4.804-.003 9.61.09 14.404-.354 3.163-.292 6.346-.423 9.486-.868 2.556-.362 5.094-.742 7.68-.777 1.112-.015 2.15-.031 3.09.752.813.678.859.748-.106 1.235-.176.089-.34.235-.525.268-2.516.445-5.027.919-7.583 1.092-3.121.212-6.26-.08-9.375.374-1.797.262-3.614.19-5.428.213-3.826.047-7.65.281-11.476.386-3.569.098-6.773 1.347-9.862 2.992-.496.264-.974 2.1-.733 2.626.434.953 1.134 1.45 2.216 1.514 1.533.09 2.988-.44 4.51-.45 2.315-.017 4.629-.135 6.942-.235 3.32-.144 6.595-.678 9.873-1.187.644-.1 1.374-.234 1.949-.028.599.215.857-.24 1.285-.289.305-.035.44-.225.432-.511-.01-.335-.194-.587-.5-.68a1.834 1.834 0 0 0-.75-.054c-2.037.26-4.113.24-6.094.91-.615.209-1.275.316-1.924.386-4.776.512-9.596.159-14.37.743-.45.055-.914.056-1.366.015-.751-.068-1.113-.795-.702-1.417.163-.245.408-.484.672-.606 2.539-1.175 5.064-2.467 7.947-2.467 1.68 0 3.332-.183 4.989-.37.857-.098 1.708-.18 2.573-.153 5.315.17 10.607-.4 15.912-.516 2.126-.046 4.225-.379 6.34-.435 2.196-.059 4.2-.79 6.221-1.493.277-.328.483-.677.549-1.045.117-.663-.517-1.213-.986-1.587-.673-.535-1.455-.84-2.28-1.043-.24.034-.482.054-.73.031-1.328-.12-2.703-.001-4.053.049-1.097.04-2.2.127-3.302.188-2.035.114-4.093.156-6.09.518-2.507.455-5.04.618-7.558.795-2.59.183-5.213-.095-7.822-.165-3.526-.095-7.06-.045-10.561-.584-1.601-.247-3.14-.656-4.428-1.916.984-.496 1.826-1.475 2.724-1.33.909.146 1.694-.098 2.532-.086.812.011 1.606-.106 2.409-.19 1.148-.122 2.279-.483 3.46-.284 2.693.454 5.395.722 8.14.632 1.406-.046 2.836.102 4.229.325 2.47.397 4.924.562 7.363-.093 1.092-.294 2.283-.047 3.282-.418a7.784 7.784 0 0 1 3.504-.47c1.277.126 2.52.04 3.776-.067.899-.076 1.796-.087 2.7-.091 1.515-.007 2.994-.458 4.31-1.242.907-.541.861-1.75.066-2.464-1.072-.962-2.41-1.131-4.01-1.389.89-1.092 1.28-2.172 1.486-3.304.295-1.63-.595-2.924-1.372-4.21-.548-.907-1.069-1.83-1.477-2.797-.48-1.14-.77-2.378.25-3.39 1.22-1.214 2.336-2.516 3.483-3.793 1.681-1.87 3.747-3.325 5.558-5.04 2.63-2.49 5.38-4.887 7.583-7.805 1.545-2.045 3.092-4.047 4.107-6.467.968-2.31 1.915-4.626 2.843-6.953.767-1.921 1.405-3.863 1.839-5.888.335-1.566.65-3.147 1.038-4.687.747-2.976 1.026-5.944.803-8.978ZM99.184 8.509c-.04 0-.05-.036-.042-.05-.891.134-1.554-.473-2.284-.804-3.553-1.606-7.206-2.851-11.062-3.522-5.337-.93-10.71-1.18-16.113-1.105-.301.004-.528.312-.856.16C73.942 1.37 89.78 2.39 99.205 8.449l-.048.007c.008.006.017.022.027.053Zm.748.814c.237-.062.384-.008.327.298l-.327-.298Zm.329.299c.296-.2.56-.084.818.083-.282.183-.545-.026-.818-.083Zm1.261.625c-.12.12-.214-.01-.243-.15-.243-.057-.36-.164-.19-.383l.283.267c.099.065.272.143.15.266ZM75.724 113.712c.168-.073.364-.009.529.017-.162.03-.354.093-.529-.017Zm19.197-1.95c-.99.847-2.074.68-3.029.87-4.858.966-9.754.61-14.638.192-1.264-.109-2.505-.16-3.77-.026-.897.095-1.814-.015-2.72.022-3.486.143-6.97.308-10.454.463-.301.014-.592.082-.887.13-3.423.545-6.795.325-10.105-.744-.283-.092-.597-.07-.817-.33-.12-.143-.276-.258-.597-.551 1.014 0 1.798-.013 2.581.002 4.296.083 8.586-.207 12.877-.213 2.759-.003 5.405-.59 8.102-.951 2.348-.314 4.742-.328 7.118-.38 4.456-.1 8.888.263 13.299.875.981.136 1.944.406 3.04.642ZM102.766 10.87l.002-.01-.002.01z"/><path class="cls-1" d="M99.238 8.493a.169.169 0 0 0-.016-.034l.037.023a.225.225 0 0 1-.021.011ZM93.584 113.738c-.04-.022-.079-.063-.119-.063-.098-.002-.196.015-.294.025.038.024.076.068.114.068.1 0 .2-.018.299-.03ZM102.004 10.632l.094-.069c-.024-.03-.045-.082-.072-.086-.028-.004-.062.04-.094.063l.072.092ZM62.35 68.83c-.042 1.041.48 1.93.719 2.92.486-.327.094-.819.332-1.148.174-.035.313.057.344.187.254 1.06.489 2.126.834 3.186.397-1.857.558-3.759 1.642-5.362.755-1.117 1.57-2.2 2.797-2.858.71-.38 1.45-.706 2.051-1.26.194-.18.41-.289.676-.293.443-.007.812.146.966.582.175.497-.136.797-.553.91-.695.186-1.246.58-1.849.953-3.698 2.295-4.175 6.023-4.655 9.943.925-.143 1.47-.694 2.08-1.069 1.759-1.082 3.476-1.072 5.244-.038 1.117.654 2.352 1.086 3.545 1.925.27-1.441.55-2.75.754-4.069.32-2.054.986-4.015 1.629-5.973.776-2.364 1.156-4.802 1.653-7.222.334-1.632.804-3.235 1.204-4.853.243-.982.557-1.938 1.016-2.841.044-.073.142-.172.122-.215-.087-.182-.217-.092-.335-.017-1.981 1.196-3.823 2.607-6.01 3.48-2.466.986-4.647.658-6.91-.672-3.316-1.948-6.014-4.448-7.81-7.85-1.011-1.913-1.969-3.86-2.596-5.95-.246-.82-.445-1.668-.915-2.4-.251-.393-.372-.794.09-1.028.454-.23.934-.045 1.154.418.21.442.305.941.43 1.42.555 2.118 1.546 4.044 2.581 5.952.358.66.656 1.356 1.055 1.989 1.684 2.667 4.14 4.538 6.696 6.26 1.99 1.342 4.115 1.488 6.255.196 1.131-.682 2.234-1.365 3.082-2.418 1.419-1.76 3.121-3.302 4.009-5.461.675-1.645 1.144-3.345 1.541-5.07.113-.49.052-.983-.084-1.395.472-.52.208.874.653.144.2-.327.179-.782.323-1.153.088-.226.29-.415.591-.395.288.02.409.198.54.442.828 1.545.389 3.163.219 4.73-.243 2.25-1.382 4.195-2.441 6.144-.227.418-.742.695-.3 1.276.125.165-.068.386-.197.533-1.008 1.149-1.186 2.626-1.67 3.997-.928 2.627-1.283 5.386-1.698 8.084-.432 2.807-1.137 5.516-1.837 8.24-.413 1.606-1.018 3.162-1.499 4.752-.234.775-.43 1.552.202 2.301.333.395.256.943.124 1.437-.523.077-.122-.544-.49-.586-.149.491-.1 1.014.058 1.455.284.791.416 1.44-.464 1.947-.405.234-.29.727-.307 1.119-.175 4.092-.012 8.168.583 12.224.066.449.055.909.085 1.464.58-.304 1.063-.585 1.139-1.278.028-.26-.096-.637.427-.59.418.038.663.24.75.62.24 1.057-.874 3.339-1.842 3.807-.674.326-1.575.1-1.937-.61-.803-1.575-1.54-3.183-2.29-4.783-.104-.22-.248-.483-.097-.721.184-.289.25-.741.634-.798.467-.07.563.402.636.71.292 1.233.608 2.443 1.564 3.498-.463-3.307-.478-6.544-.748-9.763-.148-1.774-.07-3.54.113-5.303.232-2.225-.237-4.112-2.406-5.234-.402-.208-.754-.51-1.152-.729-1.368-.75-2.757-.909-4.16-.083-.48.281-.953.574-1.441.84-.6.324-1.095.682-1.146 1.467-.041.639-.378 1.084-1.108.804-.5-.192-.755.149-1.023.4-.664.623-1.288 1.289-1.932 1.934-.272.273-.58.754-.955.273-.295-.379-.45-.984.113-1.325.878-.532 1.468-1.393 2.323-1.936.734-.465.777-1.036.497-1.813-1.15-3.186-2.027-6.455-2.85-9.739-.874-3.484-1.374-7.036-1.984-10.569-.5-2.895-.909-5.792-1.02-8.738-.105-2.773-.525-5.526-.96-8.267-.098-.616-.182-1.319-.783-1.762-.26-.192-.45-.62-.25-.794.465-.4.477-1.09.997-1.406.19-.117.383.008.502.197.194.308.26.65.31 1.007.396 2.847.886 5.684 1.171 8.542.15 1.5.187 3.022.29 4.534.221 3.242 1.002 6.387 1.518 9.577.237 1.463.48 2.926.702 4.392.06.396.018.754.578.895.373.093.448.628.553.982.337 1.14.601 2.301.897 3.466-.588.054-.42-.719-.91-.702.2-1.66.168-1.827-.435-2.261q-.079 1.147.456 2.246ZM83.88 49.2c.138-.313-.09-.284-.17-.368-.085.103-.19.195-.25.31-.108.212.132.19.21.279l.21-.22Zm-2.156 2.057c.109.065.228.166.254.146.106-.081.236-.19.26-.307.037-.197-.168-.186-.256-.14-.107.057-.171.194-.258.301Zm3.348-4.625c.054-.119.029-.215-.083-.234-.166-.03-.222.1-.21.23.007.07.092.132.14.198l.153-.194Zm.015-.783.163.209c.057-.078.124-.15.17-.235.059-.11.025-.23-.093-.247-.183-.027-.192.146-.24.273Z"/><path class="cls-1" d="M83.112 50.012c-.033.035-.094.071-.093.106 0 .035.062.068.097.102l.1-.157-.104-.05ZM95.854 135.708c-.224-.578-.673-.98-1.341-.993-1.885-.033-3.763-.27-5.654-.056-4.806.545-9.451 1.86-14.155 2.895-1.501.33-2.996.752-4.518.915-2.082.222-4.091-.425-6.087-.92-1.713-.425-3.426-.774-5.191-.829-1.66-.05-3.322-.045-4.925-.619-.45-.16-.746-.37-.96-.745 1.06-.732 2.116-1.298 3.26-1.622 1.061-.3 2.09-.71 3.151-.981 1.935-.495 3.879-.964 5.867-1.229 1.914-.255 3.836-.216 5.756-.277.82-.026 1.677-.09 2.314-.578.611-.47 1.246-.717 1.995-.906-.86.134-1.622-.353-2.51-.114-1.793.485-3.68.506-5.51.632-2.624.182-5.146.746-7.661 1.37-2.265.563-4.48 1.332-6.71 2.032-.788.247-1.444 1.253-1.449 2.12-.004.765.33 1.17 1.359 1.478.61.183 1.222.365 1.88.39a54.18 54.18 0 0 1 3.934.266c1.55.17 3.182.116 4.6.803 3.079 1.49 6.459 1.892 9.677 2.869.51.155 1.134.256.675-.662-.048-.096-.06-.178-.043-.245-.035.05-.066.09-.077.086-.134-.059-.303-.123-.364-.237-.054-.102.013-.258.216-.24.185.016.234.153.307.278-.003.002-.005.006-.007.009a.349.349 0 0 1 .184-.057c.346-.02.737.068.903-.356.164-.42-.45-.575-.459-.947 6.075-2.294 13.077-3.703 15.147-3.047-.051.136-.073.291-.156.402a33.93 33.93 0 0 1-4.802 5.19c-1.107.972-2.21 1.96-3.026 3.175-.874 1.303-1.966 1.587-3.405 1.252-1.816-.421-3.653-.748-5.473-1.15-.285-.064-.587-.075-.886-.116a1.177 1.177 0 0 1-.4-.027 33.28 33.28 0 0 1-2.608-.712 5.906 5.906 0 0 1-2.268-.497c-.686-.297-1.416-.513-2.116-.8-1.39-.57-2.789-1.12-4.193-1.653-.278-.106-.651-.15-.814.176a.936.936 0 0 0 .1.999c.195.262.502.295.789.397 1.39.496 2.851.921 4.118 1.596 1.975 1.052 4.197 1.152 6.186 2.048.752.339 1.65.352 2.402.692 2.094.947 4.193 1.011 6.436.585 1.198-.228 2.165-.718 2.778-1.601 1.527-2.203 3.647-3.813 5.47-5.713.503-.526.713-1.365 1.521-1.597.104-.216.236-.404.505-.388.014.001.014.255.02.39-.052.67.35.843.853.624 1.607-.7 3.212-1.421 4.694-2.36.428-.272.921-.749.671-1.395Zm-6.031 2.505c1.61-2.589 2.036-2.907 4.508-1.944-.936.783-3.516 1.865-4.508 1.944ZM70.608 26.87c1.128-.104 1.538.653 1.984 1.31.25.37.393.814.583 1.225.254.55.523 1.023 1.23.496.219-.162.504-.111.664.135.113.173.1.393-.016.575-.299.467-.562 1.123-1.16 1.094-.653-.031-1.154-.575-1.516-1.116-.277-.415-.417-.92-.64-1.374-.575-1.177-.945-1.348-2.143-.744-1.552.781-2.778 1.986-3.896 3.3-1.212 1.422-2.46 2.816-3.616 4.282-.6.763-.964-.05-1.431-.094-.58-.052-.508-.457-.383-.907.301-1.085 1.157-1.748 1.866-2.51a22.277 22.277 0 0 1 3.91-3.344c.968-.65 1.809-1.497 2.925-1.962.576-.24 1.174-.29 1.64-.366ZM62.064 93.905c.257-.186.496-.448.439-.747-.152-.79.43-.983.923-1.267 1.136 2.29.538 4.88 1.25 7.343.567-.075.879-.49 1.192-.846.669-.757 1.375-1.498 1.917-2.342.378-.588.707-.208 1.015-.11.486.156.372.566.148.857-.892 1.158-1.538 2.514-2.655 3.484-.59.512-1.287 1.204-2.104.907-.767-.279-.788-1.235-.917-1.958-.115-.64-.054-1.312-.055-1.97-.002-.963-.041-1.92-.348-2.844-.035-.222-.142-.344-.386-.29-.198.045-.376.042-.419-.217ZM84.575 22.609c-.072.16-.166.391-.276.615-.35.713-.886 1.33-1.05 2.145-.042.215-.285.403-.464.575-.14.135-.322.283-.53.208-.308-.11-.3-.447-.229-.64.417-1.133.876-2.25 1.334-3.367.114-.279.37-.324.632-.246.307.09.531.28.583.71Z"/><path class="cls-1" d="M62.064 93.905c.043.26.22.262.42.217.243-.054.35.068.385.29-.702 1.712-.69 3.535-.825 5.335-.043.573.068 1.18-.442 1.891-.282-.991-.195-1.775-.097-2.547.176-1.392.536-2.768.27-4.192-.066-.357.087-.693.289-.994ZM89.111 138.837c.104-.216.236-.404.505-.388.014.001.014.255.02.39l-.525-.002ZM99.22 8.448c-.933.18-1.612-.454-2.362-.794-3.553-1.606-7.206-2.851-11.062-3.523-5.337-.929-10.71-1.18-16.113-1.104-.301.004-.528.313-.856.16 5.124-1.82 21.014-.795 30.432 5.295l-.038-.034ZM76.444 113.728c-.25-.082-.698.332-.98-.376-.233-.584-.97-.628-1.202-.216-.23.404-.193.908.135 1.234.421.418.882.25 1.044-.274.219-.706.735-.285 1.003-.368ZM93.584 113.739c-.1.011-.2.03-.3.029-.037 0-.075-.044-.113-.068.098-.01.196-.027.294-.025.04 0 .08.04.119.064ZM101.123 9.674c-.304.232-.579.006-.864-.054v.002c.297-.203.562-.085.823.083l.04-.031ZM99.905 9.335c.259-.078.414-.028.353.287a271.092 271.092 0 0 1-.335-.308l-.018.021ZM102.004 10.632l-.072-.092c.032-.023.066-.067.094-.063.027.004.048.055.072.086l-.094.069ZM102.761 10.853l-.024.234c.065-.013.161-.005.189-.044.056-.081-.004-.145-.127-.155l-.038-.035Z"/><path class="cls-1" d="m101.082 9.705.29.275-.093.115c-.256-.06-.375-.172-.16-.419l-.037.03ZM101.372 9.98c.099.065.272.142.15.266-.12.12-.214-.01-.243-.15l.093-.116ZM99.923 9.314l.066-.197c-.024.07-.049.14-.079.214a.119.119 0 0 1 .013-.017ZM102.8 10.888c-.087-.064-.125-.036-.107.082 0 .005.067.01.098 0 .194-.06-.074.086-.026-.114l.034.032ZM99.259 8.482c-.175.102-.12-.149-.07.045.018.067.095.022.03-.08.002 0 .04.035.04.035ZM62.35 68.83q-.535-1.098-.456-2.245c.603.434.635.602.435 2.26l.02-.014ZM83.88 49.2c-.025.028-.117.124-.21.22-.078-.087-.318-.066-.21-.277.06-.116.165-.208.25-.31.08.083.308.054.17.368ZM81.724 51.257c.087-.107.151-.244.258-.3.088-.047.293-.058.255.139-.023.117-.153.226-.259.307-.026.02-.145-.08-.254-.146ZM85.072 46.632l-.152.194c-.05-.066-.134-.128-.14-.198-.013-.13.043-.26.209-.23.112.02.137.115.083.234ZM85.087 45.85c.048-.128.057-.301.24-.274.118.017.152.136.092.247-.045.084-.112.157-.169.235l-.163-.209ZM83.112 50.012l.104.05-.1.159c-.035-.035-.097-.068-.097-.103 0-.035.06-.07.093-.106ZM82.566 52.218c.118-.075.248-.165.335.017.02.043-.078.142-.122.215-.07-.078-.142-.155-.213-.232ZM94.33 136.269c-.935.783-3.515 1.865-4.507 1.944 1.61-2.589 2.036-2.907 4.508-1.944ZM73.69 140.589c-.055.07-.14.208-.159.199-.134-.059-.303-.123-.364-.237-.054-.102.013-.258.216-.24.185.016.234.152.307.278Z"/></svg>