<svg id="visual" viewBox="0 0 1800 350" width="1800" height="350" xmlns="http://www.w3.org/2000/svg" xmlns:xlink="http://www.w3.org/1999/xlink" version="1.1"><rect x="0" y="0" width="1800" height="350" fill="#fff"></rect><path d="M0 279L37.5 262.7C75 246.3 150 213.7 225 214C300 214.3 375 247.7 450 252.2C525 256.7 600 232.3 675 232C750 231.7 825 255.3 900 258C975 260.7 1050 242.3 1125 227C1200 211.7 1275 199.3 1350 206.2C1425 213 1500 239 1575 246.5C1650 254 1725 243 1762.5 237.5L1800 232L1800 351L1762.5 351C1725 351 1650 351 1575 351C1500 351 1425 351 1350 351C1275 351 1200 351 1125 351C1050 351 975 351 900 351C825 351 750 351 675 351C600 351 525 351 450 351C375 351 300 351 225 351C150 351 75 351 37.5 351L0 351Z" fill="#254571" stroke-linecap="round" stroke-linejoin="miter"></path></svg>