<svg id="visual" viewBox="0 0 1800 300" width="1800" height="300" xmlns="http://www.w3.org/2000/svg" xmlns:xlink="http://www.w3.org/1999/xlink" version="1.1"><rect x="0" y="0" width="1800" height="300" fill="#fff"></rect><path d="M0 166L42.8 162C85.7 158 171.3 150 257 158.8C342.7 167.7 428.3 193.3 514 208.8C599.7 224.3 685.3 229.7 771.2 227.7C857 225.7 943 216.3 1028.8 204.3C1114.7 192.3 1200.3 177.7 1286 169.5C1371.7 161.3 1457.3 159.7 1543 167.5C1628.7 175.3 1714.3 192.7 1757.2 201.3L1800 210L1800 301L1757.2 301C1714.3 301 1628.7 301 1543 301C1457.3 301 1371.7 301 1286 301C1200.3 301 1114.7 301 1028.8 301C943 301 857 301 771.2 301C685.3 301 599.7 301 514 301C428.3 301 342.7 301 257 301C171.3 301 85.7 301 42.8 301L0 301Z" fill="#7eaccc" stroke-linecap="round" stroke-linejoin="miter"></path></svg>