<svg id="visual" viewBox="0 0 1850 300" width="1850" height="300" xmlns="http://www.w3.org/2000/svg" xmlns:xlink="http://www.w3.org/1999/xlink" version="1.1"><rect x="0" y="0" width="1850" height="300" fill="#fff"></rect><path d="M0 180L19.3 189.2C38.7 198.3 77.3 216.7 115.8 226.3C154.3 236 192.7 237 231.2 246.8C269.7 256.7 308.3 275.3 347 277.2C385.7 279 424.3 264 462.8 242.7C501.3 221.3 539.7 193.7 578.2 179.3C616.7 165 655.3 164 693.8 171.3C732.3 178.7 770.7 194.3 809.2 208.2C847.7 222 886.3 234 925 232.3C963.7 230.7 1002.3 215.3 1040.8 214.3C1079.3 213.3 1117.7 226.7 1156.2 222.7C1194.7 218.7 1233.3 197.3 1272 196.8C1310.7 196.3 1349.3 216.7 1387.8 228.3C1426.3 240 1464.7 243 1503.2 235.3C1541.7 227.7 1580.3 209.3 1618.8 213.3C1657.3 217.3 1695.7 243.7 1734.2 251.7C1772.7 259.7 1811.3 249.3 1830.7 244.2L1850 239L1850 301L1830.7 301C1811.3 301 1772.7 301 1734.2 301C1695.7 301 1657.3 301 1618.8 301C1580.3 301 1541.7 301 1503.2 301C1464.7 301 1426.3 301 1387.8 301C1349.3 301 1310.7 301 1272 301C1233.3 301 1194.7 301 1156.2 301C1117.7 301 1079.3 301 1040.8 301C1002.3 301 963.7 301 925 301C886.3 301 847.7 301 809.2 301C770.7 301 732.3 301 693.8 301C655.3 301 616.7 301 578.2 301C539.7 301 501.3 301 462.8 301C424.3 301 385.7 301 347 301C308.3 301 269.7 301 231.2 301C192.7 301 154.3 301 115.8 301C77.3 301 38.7 301 19.3 301L0 301Z" fill="#Dff6ff" stroke-linecap="round" stroke-linejoin="miter"></path></svg>