<svg id="visual" viewBox="0 0 1850 300" width="1850" height="300" xmlns="http://www.w3.org/2000/svg" xmlns:xlink="http://www.w3.org/1999/xlink" version="1.1"><rect x="0" y="0" width="1850" height="300" fill="#fff"></rect><path d="M0 118L19.3 108.8C38.7 99.7 77.3 81.3 115.8 71.7C154.3 62 192.7 61 231.2 51.2C269.7 41.3 308.3 22.7 347 20.8C385.7 19 424.3 34 462.8 55.3C501.3 76.7 539.7 104.3 578.2 118.7C616.7 133 655.3 134 693.8 126.7C732.3 119.3 770.7 103.7 809.2 89.8C847.7 76 886.3 64 925 65.7C963.7 67.3 1002.3 82.7 1040.8 83.7C1079.3 84.7 1117.7 71.3 1156.2 75.3C1194.7 79.3 1233.3 100.7 1272 101.2C1310.7 101.7 1349.3 81.3 1387.8 69.7C1426.3 58 1464.7 55 1503.2 62.7C1541.7 70.3 1580.3 88.7 1618.8 84.7C1657.3 80.7 1695.7 54.3 1734.2 46.3C1772.7 38.3 1811.3 48.7 1830.7 53.8L1850 59L1850 0L1830.7 0C1811.3 0 1772.7 0 1734.2 0C1695.7 0 1657.3 0 1618.8 0C1580.3 0 1541.7 0 1503.2 0C1464.7 0 1426.3 0 1387.8 0C1349.3 0 1310.7 0 1272 0C1233.3 0 1194.7 0 1156.2 0C1117.7 0 1079.3 0 1040.8 0C1002.3 0 963.7 0 925 0C886.3 0 847.7 0 809.2 0C770.7 0 732.3 0 693.8 0C655.3 0 616.7 0 578.2 0C539.7 0 501.3 0 462.8 0C424.3 0 385.7 0 347 0C308.3 0 269.7 0 231.2 0C192.7 0 154.3 0 115.8 0C77.3 0 38.7 0 19.3 0L0 0Z" fill="#Dff6ff" stroke-linecap="round" stroke-linejoin="miter"></path></svg>